<mxfile host="app.diagrams.net" modified="2023-11-21T05:54:50.245Z" agent="Mozilla/5.0 (X11; Ubuntu; Linux x86_64; rv:109.0) Gecko/20100101 Firefox/119.0" etag="0p4oE8xS8SzQ9wWN7qg5" version="22.1.3" type="github">
  <diagram name="Page-1" id="hutoqVeJ66fNpAJSHPKW">
    <mxGraphModel dx="1695" dy="994" grid="1" gridSize="10" guides="1" tooltips="1" connect="1" arrows="1" fold="1" page="1" pageScale="1" pageWidth="1100" pageHeight="850" math="0" shadow="0">
      <root>
        <mxCell id="0" />
        <mxCell id="1" parent="0" />
        <mxCell id="_w0UX-vgMBKM8bVC3atp-27" value="&lt;font style=&quot;font-size: 19px;&quot;&gt;用户中心&lt;/font&gt;" style="rounded=0;whiteSpace=wrap;html=1;labelPosition=center;verticalLabelPosition=top;align=center;verticalAlign=bottom;spacingTop=8;spacingBottom=-38;dashed=1;fillOpacity=0;" vertex="1" parent="1">
          <mxGeometry x="235" y="445" width="140" height="175" as="geometry" />
        </mxCell>
        <mxCell id="_w0UX-vgMBKM8bVC3atp-1" value="" style="rounded=0;whiteSpace=wrap;html=1;strokeOpacity=100;fillOpacity=0;dashed=1;" vertex="1" parent="1">
          <mxGeometry x="230" y="150" width="650" height="110" as="geometry" />
        </mxCell>
        <mxCell id="_w0UX-vgMBKM8bVC3atp-17" value="" style="edgeStyle=orthogonalEdgeStyle;rounded=0;orthogonalLoop=1;jettySize=auto;html=1;" edge="1" parent="1" source="_w0UX-vgMBKM8bVC3atp-3" target="_w0UX-vgMBKM8bVC3atp-4">
          <mxGeometry relative="1" as="geometry">
            <Array as="points">
              <mxPoint x="440" y="270" />
              <mxPoint x="440" y="270" />
            </Array>
          </mxGeometry>
        </mxCell>
        <mxCell id="_w0UX-vgMBKM8bVC3atp-3" value="装维平台" style="fontColor=#0066CC;verticalAlign=top;verticalLabelPosition=bottom;labelPosition=center;align=center;html=1;outlineConnect=0;fillColor=#CCCCCC;strokeColor=#6881B3;gradientColor=none;gradientDirection=north;strokeWidth=2;shape=mxgraph.networks.pc;" vertex="1" parent="1">
          <mxGeometry x="405" y="170" width="70" height="55" as="geometry" />
        </mxCell>
        <mxCell id="_w0UX-vgMBKM8bVC3atp-19" value="" style="edgeStyle=orthogonalEdgeStyle;rounded=0;orthogonalLoop=1;jettySize=auto;html=1;" edge="1" parent="1" source="_w0UX-vgMBKM8bVC3atp-4" target="_w0UX-vgMBKM8bVC3atp-13">
          <mxGeometry relative="1" as="geometry">
            <Array as="points">
              <mxPoint x="600" y="370" />
              <mxPoint x="600" y="370" />
            </Array>
          </mxGeometry>
        </mxCell>
        <mxCell id="_w0UX-vgMBKM8bVC3atp-26" value="" style="edgeStyle=orthogonalEdgeStyle;rounded=0;orthogonalLoop=1;jettySize=auto;html=1;" edge="1" parent="1" source="_w0UX-vgMBKM8bVC3atp-4" target="_w0UX-vgMBKM8bVC3atp-5">
          <mxGeometry relative="1" as="geometry">
            <Array as="points">
              <mxPoint x="440" y="370" />
              <mxPoint x="305" y="370" />
            </Array>
          </mxGeometry>
        </mxCell>
        <mxCell id="_w0UX-vgMBKM8bVC3atp-4" value="&lt;font style=&quot;font-size: 19px;&quot;&gt;负载均衡&lt;/font&gt;" style="rounded=0;whiteSpace=wrap;html=1;" vertex="1" parent="1">
          <mxGeometry x="235" y="290" width="640" height="60" as="geometry" />
        </mxCell>
        <mxCell id="_w0UX-vgMBKM8bVC3atp-29" value="" style="edgeStyle=orthogonalEdgeStyle;rounded=0;orthogonalLoop=1;jettySize=auto;html=1;" edge="1" parent="1" source="_w0UX-vgMBKM8bVC3atp-5" target="_w0UX-vgMBKM8bVC3atp-28">
          <mxGeometry relative="1" as="geometry">
            <Array as="points">
              <mxPoint x="410" y="410" />
              <mxPoint x="410" y="500" />
            </Array>
          </mxGeometry>
        </mxCell>
        <mxCell id="_w0UX-vgMBKM8bVC3atp-5" value="登录" style="rounded=0;whiteSpace=wrap;html=1;fontSize=19;" vertex="1" parent="1">
          <mxGeometry x="245" y="390" width="120" height="40" as="geometry" />
        </mxCell>
        <mxCell id="_w0UX-vgMBKM8bVC3atp-6" value="组织架构" style="rounded=0;whiteSpace=wrap;html=1;fontSize=19;" vertex="1" parent="1">
          <mxGeometry x="260" y="490" width="90" height="40" as="geometry" />
        </mxCell>
        <mxCell id="_w0UX-vgMBKM8bVC3atp-7" value="用户权限" style="rounded=0;whiteSpace=wrap;html=1;fontSize=19;" vertex="1" parent="1">
          <mxGeometry x="260" y="550" width="90" height="40" as="geometry" />
        </mxCell>
        <mxCell id="_w0UX-vgMBKM8bVC3atp-8" value="AI算法服务" style="rounded=0;whiteSpace=wrap;html=1;fontSize=19;" vertex="1" parent="1">
          <mxGeometry x="760" y="385" width="120" height="60" as="geometry" />
        </mxCell>
        <mxCell id="_w0UX-vgMBKM8bVC3atp-11" value="&lt;font style=&quot;font-size: 19px;&quot;&gt;数据库&lt;/font&gt;" style="shape=cylinder3;whiteSpace=wrap;html=1;boundedLbl=1;backgroundOutline=1;size=15;" vertex="1" parent="1">
          <mxGeometry x="535" y="570" width="110" height="70" as="geometry" />
        </mxCell>
        <mxCell id="_w0UX-vgMBKM8bVC3atp-30" value="" style="edgeStyle=orthogonalEdgeStyle;rounded=0;orthogonalLoop=1;jettySize=auto;html=1;" edge="1" parent="1" source="_w0UX-vgMBKM8bVC3atp-13" target="_w0UX-vgMBKM8bVC3atp-28">
          <mxGeometry relative="1" as="geometry" />
        </mxCell>
        <mxCell id="_w0UX-vgMBKM8bVC3atp-35" value="" style="edgeStyle=orthogonalEdgeStyle;rounded=0;orthogonalLoop=1;jettySize=auto;html=1;" edge="1" parent="1" source="_w0UX-vgMBKM8bVC3atp-13" target="_w0UX-vgMBKM8bVC3atp-32">
          <mxGeometry relative="1" as="geometry">
            <Array as="points">
              <mxPoint x="670" y="430" />
              <mxPoint x="670" y="500" />
            </Array>
          </mxGeometry>
        </mxCell>
        <mxCell id="_w0UX-vgMBKM8bVC3atp-36" value="" style="edgeStyle=orthogonalEdgeStyle;rounded=0;orthogonalLoop=1;jettySize=auto;html=1;" edge="1" parent="1" source="_w0UX-vgMBKM8bVC3atp-13" target="_w0UX-vgMBKM8bVC3atp-8">
          <mxGeometry relative="1" as="geometry" />
        </mxCell>
        <mxCell id="_w0UX-vgMBKM8bVC3atp-13" value="API" style="rounded=0;whiteSpace=wrap;html=1;fontSize=19;" vertex="1" parent="1">
          <mxGeometry x="530" y="385" width="120" height="60" as="geometry" />
        </mxCell>
        <mxCell id="_w0UX-vgMBKM8bVC3atp-24" value="" style="edgeStyle=orthogonalEdgeStyle;rounded=0;orthogonalLoop=1;jettySize=auto;html=1;" edge="1" parent="1" source="_w0UX-vgMBKM8bVC3atp-23" target="_w0UX-vgMBKM8bVC3atp-4">
          <mxGeometry relative="1" as="geometry">
            <Array as="points">
              <mxPoint x="605" y="270" />
              <mxPoint x="605" y="270" />
            </Array>
          </mxGeometry>
        </mxCell>
        <mxCell id="_w0UX-vgMBKM8bVC3atp-23" value="调用者" style="fontColor=#0066CC;verticalAlign=top;verticalLabelPosition=bottom;labelPosition=center;align=center;html=1;outlineConnect=0;fillColor=#CCCCCC;strokeColor=#6881B3;gradientColor=none;gradientDirection=north;strokeWidth=2;shape=mxgraph.networks.server;" vertex="1" parent="1">
          <mxGeometry x="580" y="170" width="50" height="60" as="geometry" />
        </mxCell>
        <mxCell id="_w0UX-vgMBKM8bVC3atp-31" value="" style="edgeStyle=orthogonalEdgeStyle;rounded=0;orthogonalLoop=1;jettySize=auto;html=1;" edge="1" parent="1" source="_w0UX-vgMBKM8bVC3atp-28" target="_w0UX-vgMBKM8bVC3atp-11">
          <mxGeometry relative="1" as="geometry" />
        </mxCell>
        <mxCell id="_w0UX-vgMBKM8bVC3atp-28" value="审核服务" style="rounded=0;whiteSpace=wrap;html=1;fontSize=19;" vertex="1" parent="1">
          <mxGeometry x="530" y="470" width="120" height="60" as="geometry" />
        </mxCell>
        <mxCell id="_w0UX-vgMBKM8bVC3atp-32" value="图片保存" style="rounded=0;whiteSpace=wrap;html=1;fontSize=19;" vertex="1" parent="1">
          <mxGeometry x="760" y="470" width="120" height="60" as="geometry" />
        </mxCell>
      </root>
    </mxGraphModel>
  </diagram>
</mxfile>
